{"title":"Ravens.Touch.2015.BRRip.480p.x264.AAC-VYTO [P2PDL]","uid":14335679,"size":323927801,"categoryP":"video","categoryS":"movies","magnet":"?xt=urn:btih:1ac187664ff67e2e6b7ad9abee9d15c5e8b4ae19&amp;dn=Ravens.Touch.2015.BRRip.480p.x264.AAC-VYTO+%5BP2PDL%5D&amp;tr=udp%3A%2F%2Ftracker.leechers-paradise.org%3A6969&amp;tr=udp%3A%2F%2Fzer0day.ch%3A1337&amp;tr=udp%3A%2F%2Fopen.demonii.com%3A1337&amp;tr=udp%3A%2F%2Ftracker.coppersurfer.tk%3A6969&amp;tr=udp%3A%2F%2Fexodus.desync.com%3A6969","seeders":1,"leechers":0,"uploader":"VYTOP2PDL","files":6,"time":1460706014,"description":"____    ____ ____    ____ .___________.  ______   \r\n     /   /      /   / |           | /  __    \r\n    /   /      /   /  `---|  |----`|  |  |  | \r\n        /     _    _/       |  |     |  |  |  | \r\n       /        |  |         |  |     |  `--'  | \r\n    __/         |__|         |__|      ______/  \r\n                                                  \r\nPresenting Small Encodes with quality for years!\r\n                                                                                                   \r\n                                                                                                   \r\n\r\n\r\nRavens.Touch.2015.BRRip.480p.x264.AAC-VYTO\r\n\r\n\r\nGenre: Drama \nhttp://www.imdb.com/title/tt3054840/\r\n\r\n\r\nFormat                                   : MPEG-4\r\nFile size                                : 301 MiB\r\nDuration                                 : 1h 24mn\r\nOverall bit rate                         : 500 Kbps\r\n\r\nVideo\r\nFormat                                   : AVC\r\nBit rate                                 : 457 Kbps\r\nWidth                                    : 720 pixels\r\nHeight                                   : 400 pixels\r\nDisplay aspect ratio                     : 16:9\r\nFrame rate mode                          : Constant\r\nFrame rate                               : 23.976 fps\r\nBit depth                                : 8 bits\r\nStream size                              : 275 MiB (91%)\r\nWriting library                          : x264 \r\n\r\nAudio\r\nFormat                                   : AAC\r\nBit rate mode                            : Variable\r\nBit rate                                 : 40.0 Kbps\r\nChannel(s)                               : 2 channels\r\nChannel positions                        : Front: L R\r\nSampling rate                            : 48.0 KHz \r\nStream size                              : 24.1 MiB (8%)\r\nLanguage                                 : English\r\n\r\nSubtitle                                 : N/a\r\n\r\nScreen Shots: (Click link to view)\r\n \nhttps://ititli.com/XVl \nhttps://ititli.com/XVm \nhttps://ititli.com/XVx \nhttps://ititli.com/XV7 \nhttps://ititli.com/XVC \nhttps://ititli.com/XVF \nhttps://ititli.com/XVJ \nhttps://ititli.com/XV5 \nhttps://ititli.com/XVB \nhttps://ititli.com/XVN \nhttps://ititli.com/XVP \nhttps://ititli.com/XVf\r\n\r\n----------------------------------------------------------------------------------------------------\r\n\r\n\r\nEncoder Notes: Looking For Early Access To Anything You Can Provide WEBDL, DVDScr, DVDR, BluRay,\r\nDirect Audio, Music Releases and Seedboxes. If You Got anything to offer please contact us.\r\n\r\nSupport us by donating BC - 1FgwdzPsd1y25Gea8wP1qni35uGCtmkRCD\r\n\r\nFind us and join us!","torrent":{"xt":"urn:btih:1ac187664ff67e2e6b7ad9abee9d15c5e8b4ae19","amp;dn":"Ravens.Touch.2015.BRRip.480p.x264.AAC-VYTO+%5BP2PDL%5D","amp;tr":["udp%3A%2F%2Ftracker.leechers-paradise.org%3A6969","udp%3A%2F%2Fzer0day.ch%3A1337","udp%3A%2F%2Fopen.demonii.com%3A1337","udp%3A%2F%2Ftracker.coppersurfer.tk%3A6969","udp%3A%2F%2Fexodus.desync.com%3A6969"],"infoHash":"1ac187664ff67e2e6b7ad9abee9d15c5e8b4ae19","infoHashBuffer":{"type":"Buffer","data":[26,193,135,102,79,246,126,46,107,122,217,171,238,157,21,197,232,180,174,25]},"announce":[],"urlList":[]}}